<svg t="1730311591367" class="icon" viewBox="0 0 1334 1024" version="1.1" xmlns="http://www.w3.org/2000/svg" p-id="13781" width="200" height="200"><path d="M1192.463515 145.190788v77.575757H172.838788v-77.575757z" fill="#5AC2EE" p-id="13782"></path><path d="M1192.463515 211.657697v77.575758H172.838788v-77.575758zM913.935515 670.999273c20.076606 0 36.615758 15.266909 38.570667 34.816l0.217212 3.971879v258.172121a38.787879 38.787879 0 0 1-77.389576 3.940848l-0.186182-3.971879v-258.172121c0-21.410909 17.37697-38.787879 38.787879-38.787879z" fill="#5AC2EE" p-id="13783"></path><path d="M770.699636 754.65697a38.787879 38.787879 0 0 1 49.338182-15.732364l3.723637 1.923879 219.632484 129.08606a38.787879 38.787879 0 0 1-35.560727 68.825213l-3.754667-1.95491-219.601454-129.08606a38.787879 38.787879 0 0 1-13.777455-53.061818z" fill="#5AC2EE" p-id="13784"></path><path d="M1004.078545 740.848485a38.787879 38.787879 0 0 1 42.821819 64.54303l-3.506425 2.358303-219.601454 129.086061a38.787879 38.787879 0 0 1-42.821818-64.543031l3.506424-2.358303 219.601454-129.08606zM327.773091 670.409697a38.787879 38.787879 0 0 1 44.869818 26.189576l1.024 3.847757 17.066667 81.764849c5.988848 29.168485-4.654545 61.129697-28.175515 77.606788l-2.513455 1.582545 23.676121 98.800485a38.787879 38.787879 0 0 1-24.855272 45.614545l-3.816728 1.117091a38.787879 38.787879 0 0 1-45.614545-24.855272l-1.148121-3.816728-23.893334-99.669333c-7.850667-32.985212 5.988848-69.911273 36.336485-83.843879l-4.778667 2.389334a3.971879 3.971879 0 0 0-1.179151 0.775757l-17.066667-81.609697a38.787879 38.787879 0 0 1 30.068364-45.924848zM478.083879 670.409697a38.787879 38.787879 0 0 1 44.900848 26.220606l0.99297 3.816727 17.066667 81.733818c6.019879 29.168485-4.654545 61.129697-28.144485 77.637819l-2.544485 1.582545 23.676121 98.800485a38.787879 38.787879 0 0 1-24.886303 45.614545l-3.816727 1.117091a38.787879 38.787879 0 0 1-45.614546-24.855272l-1.117091-3.816728-23.893333-99.669333c-7.850667-32.985212 5.988848-69.911273 36.336485-83.812848l-4.778667 2.358303-1.179151 0.837818-17.066667-81.671758a38.787879 38.787879 0 0 1 30.099394-45.924848zM628.363636 670.409697a38.787879 38.787879 0 0 1 44.900849 26.189576l0.99297 3.847757 17.066666 81.733818c6.081939 29.354667-4.747636 61.595152-28.609939 77.979152l-2.048 1.272242 23.676121 98.769455a38.787879 38.787879 0 0 1-24.855273 45.614545l-3.816727 1.117091a38.787879 38.787879 0 0 1-45.614545-24.855272l-1.148122-3.816728-23.893333-99.669333c-7.881697-32.985212 5.988848-69.911273 36.336485-83.843879l-4.778667 2.389334a4.096 4.096 0 0 0-1.179151 0.775757l-17.066667-81.609697a38.787879 38.787879 0 0 1 30.037333-45.924848zM1015.125333 566.30303v77.575758H328.021333v-77.575758z" fill="#5AC2EE" p-id="13785"></path><path d="M1212.043636 23.272727H131.10303C71.400727 23.272727 23.303758 73.231515 23.303758 133.740606L23.272727 544.519758c0 57.219879 44.931879 110.467879 95.449212 110.467878l178.672485-0.06206-0.03103-140.101818H1045.721212v140.101818l178.734546 0.03103c50.517333 0 95.449212-53.21697 95.449212-110.467879L1319.873939 133.740606c0-60.509091-48.09697-110.467879-107.861333-110.467879zM131.10303 100.848485H1212.043636c16.228848 0 30.285576 14.584242 30.285576 32.892121v410.779152l-0.217212 3.878787c-1.768727 15.484121-13.498182 28.982303-17.625212 28.982303l-101.158788-0.03103v-65.473939c0-40.804848-32.550788-74.596848-73.293576-74.596849H293.174303l-5.08897 0.155152c-38.322424 2.668606-68.266667 35.374545-68.266666 74.472727l-0.031031 65.442909-101.096727 0.03103c-4.468364 0-17.842424-15.856485-17.842424-32.892121L100.879515 133.740606c0-18.307879 14.025697-32.892121 30.254546-32.892121z" fill="#5AC2EE" p-id="13786"></path><path d="M1159.19903 333.575758a49.865697 49.865697 0 1 0 0 99.731394 49.865697 49.865697 0 0 0 0-99.731394z m0 22.155636a27.710061 27.710061 0 1 1 0 55.420121 27.710061 27.710061 0 0 1 0-55.420121z" fill="#5AC2EE" p-id="13787"></path></svg>