<svg t="1730299738279" class="icon" viewBox="0 0 1364 1024" version="1.1" xmlns="http://www.w3.org/2000/svg" p-id="11866" width="200" height="200"><path d="M1096.608751 823.798975a30.898367 30.898367 0 0 1-36.769057 23.235572l-151.401998-40.631353a233.931537 233.931537 0 0 1-448.644289 11.308802l-117.722778 31.60903h-0.926951c0 1.050544 0.308984 2.008394 0.308983 3.089837a170.713478 170.713478 0 1 1-13.286297-65.566335l120.812614-32.35059c0-2.780853-0.308984-5.499909-0.308983-8.280763a233.375366 233.375366 0 0 1 149.239112-217.740792l-24.100726-186.966019a170.929766 170.929766 0 1 1 62.723685-11.463294l23.791743 183.5363c7.415608-0.679764 14.522232-1.112341 22.246824-1.112341a233.468061 233.468061 0 0 1 233.591655 229.945647l160.053541 42.917832a30.898367 30.898367 0 0 1 20.392922 38.468467zM171.511643 746.738447a106.197687 106.197687 0 1 0 106.599366 106.197688 106.290382 106.290382 0 0 0-106.599366-106.135891zM682.570633 171.503549a106.599366 106.599366 0 1 0-106.599366 106.72296 106.753858 106.753858 0 0 0 106.599366-106.661163z m0 404.490522a170.219104 170.219104 0 1 0 167.469149 198.213025 33.153948 33.153948 0 0 1 0-16.499728 27.530445 27.530445 0 0 1 2.162886-4.974637 47.3054 47.3054 0 0 0 0.926951-6.519556 170.342697 170.342697 0 0 0-170.558986-170.157307z" fill="#112079" p-id="11867"></path><path d="M1193.011656 682.222657a170.250002 170.250002 0 1 1-170.558986 170.250002 170.373596 170.373596 0 0 1 170.558986-170.250002z m-0.617967 64.577587a106.197687 106.197687 0 1 1-106.599367 106.197688 106.290382 106.290382 0 0 1 106.599367-106.197688z" fill="#112079" p-id="11868"></path></svg>