<svg t="1730298763714" class="icon" viewBox="0 0 1024 1024" version="1.1" xmlns="http://www.w3.org/2000/svg" p-id="4413" width="200" height="200"><path d="M290.133333 847.644444c-125.155556-11.377778-221.866667-113.777778-221.866666-238.933333 0-113.777778 79.644444-210.488889 187.733333-233.244444 28.444444-113.777778 130.844444-199.111111 256-199.111111s227.555556 85.333333 261.688889 199.111111c108.088889 22.755556 187.733333 119.466667 187.733333 233.244444 0 125.155556-96.711111 233.244444-221.866666 238.933333H290.133333z m432.355556-415.288888c-11.377778-108.088889-102.4-193.422222-210.488889-193.422223S312.888889 324.266667 307.2 432.355556c-96.711111 0-176.355556 79.644444-176.355556 176.355555 0 96.711111 79.644444 176.355556 176.355556 176.355556h415.288889c96.711111 0 176.355556-79.644444 176.355555-176.355556 0-96.711111-79.644444-176.355556-176.355555-176.355555z m11.377778 256h45.511111c11.377778 0 17.066667 11.377778 17.066666 22.755555 0 17.066667-5.688889 22.755556-17.066666 22.755556h-113.777778c-5.688889 0-22.755556-5.688889-22.755556-22.755556 0-17.066667 11.377778-22.755556 22.755556-22.755555 17.066667 0 62.577778-62.577778 62.577778-62.577778 5.688889-5.688889 17.066667-22.755556 17.066666-34.133334 0-5.688889 0-17.066667-17.066666-17.066666s-17.066667 17.066667-17.066667 17.066666c0 28.444444-45.511111 22.755556-45.511111 0 0-56.888889 45.511111-62.577778 62.577778-62.577777 51.2 0 68.266667 34.133333 62.577778 62.577777-5.688889 22.755556-22.755556 51.2-34.133334 62.577778 0 17.066667-22.755556 34.133333-22.755555 34.133334z m-187.733334 45.511111c-51.2 0-96.711111-45.511111-96.711111-96.711111V546.133333c0-51.2 45.511111-96.711111 96.711111-96.711111 51.2 0 96.711111 45.511111 96.711111 96.711111v96.711111c-5.688889 51.2-45.511111 91.022222-96.711111 91.022223z m45.511111-187.733334c0-28.444444-22.755556-45.511111-45.511111-45.511111-28.444444 0-45.511111 22.755556-45.511111 45.511111v96.711111c0 28.444444 22.755556 45.511111 45.511111 45.511112 28.444444 0 45.511111-22.755556 45.511111-45.511112V546.133333z m-369.777777 45.511111C221.866667 512 284.444444 449.422222 364.088889 449.422222h17.066667c11.377778 0 17.066667 0 17.066666 5.688889 5.688889 5.688889 5.688889 11.377778 5.688889 17.066667 0 5.688889 0 11.377778-5.688889 17.066666 0 5.688889-5.688889 5.688889-11.377778 5.688889h-17.066666c-51.2 0-96.711111 45.511111-96.711111 96.711111 0 51.2 45.511111 96.711111 96.711111 96.711112h17.066666c5.688889 0 11.377778 0 17.066667 5.688888 5.688889 5.688889 5.688889 11.377778 5.688889 17.066667 0 5.688889 0 11.377778-5.688889 17.066667-5.688889 5.688889-11.377778 5.688889-17.066667 5.688889h-17.066666c-79.644444 0-147.911111-62.577778-147.911111-142.222223z" p-id="4414" fill="#112079"></path></svg>
