<svg t="1730299018338" class="icon" viewBox="0 0 1024 1024" version="1.1" xmlns="http://www.w3.org/2000/svg" p-id="8429" width="200" height="200"><path d="M725.4 527.7c-10.5-10.9-16.4-25.2-16.6-40l0.7-290.8C710 89.7 626.4 3.2 518.4 0h-1.2C464.6 0 415 20.3 377.5 57.4c-37.8 37.3-58.7 87.1-59 139.6v288.3c-0.2 14.5-5.9 28.2-16.6 38.8-113.4 115.8-111.5 302.3 4.3 415.8 56.6 55.5 130.8 84.1 205.7 84.1 53.3 0 106.9-14.5 154.9-44.2 18.4-11.4 24.1-35.6 12.7-54-11.4-18.4-35.6-24.1-54-12.7-84.5 52.3-193.2 40.4-264.3-29.3-84.9-83.1-86.3-219.9-3.5-304.4 25-24.9 39-58 39.4-93.7v-36h88.4c21.7 0 39.3-17.6 39.3-39.3s-17.6-39.3-39.3-39.3h-88.4v-78.5h88.4c21.7 0 39.3-17.6 39.3-39.3S507.2 214 485.5 214h-88.4v-14.2h-39.3l39.3-1.9c0.2-32.1 12.9-62.2 35.7-84.8 22.8-22.6 53-34.8 84.3-34.7 64.3 1.9 114.3 53.8 114.1 118.2l-0.9 291.4c0.3 35.4 14 68.9 38.3 94 50.9 54.1 70.4 129.3 52 201.3-5.4 21 7.3 42.4 28.4 47.7 21 5.4 42.4-7.3 47.7-28.4 25.1-98.1-1.4-200.7-71.3-274.9z" fill="#112079" p-id="8430"></path></svg>